
<svg version="1.1" id="_vet_logo" xmlns="http://www.w3.org/2000/svg" xmlns:xlink="http://www.w3.org/1999/xlink" x="0px" y="0px" width="100%" height="100%"
	 viewBox="0 0 288 227.5" enable-background="new 0 0 288 227.5" xml:space="preserve">
<path stroke="#000000" stroke-miterlimit="10" d="M288,0.7c1.5,3.1,0.4,5.1-2.5,6.6c-20.7,10.5-36.9,26-50,45
	c-15.9,23.1-31.8,46.2-47.7,69.3c-0.7,1.1-1.5,2.1-2.6,3.6c-3.4-6.1-6.6-11.9-9.9-17.7c-0.9-1.6,0.3-2.5,1-3.5
	c17.3-25.2,34.6-50.4,51.9-75.6c0.9-1.3,1.8-2.6,2.6-3.9c0.6-1,0.7-2.1-0.4-2.9c-1.1-0.9-2.3-0.8-3.2,0.1c-0.8,0.8-1.5,1.8-2.2,2.8
	c-17.1,24.9-34.2,49.8-51.3,74.6c-0.4,0.6-0.8,1.1-1.6,2.2c-3.5-6.2-6.7-12.1-10-18c-0.8-1.5,0.5-2.5,1.2-3.5
	c12.1-17.7,24.3-35.4,36.4-53.1c1.1-1.6,3.7-3.5,0.9-5.4c-2.6-1.8-3.7,1-4.9,2.7c-11.8,17.1-23.5,34.2-35.3,51.2
	c-0.5,0.7-1,1.3-1.7,2.2c-3.3-5.9-6.5-11.6-9.7-17.3c-0.7-1.3-0.4-2.2,0.3-3.2c10.1-14.6,19.9-29.4,30.3-43.7
	C185,6,192.7,2,202.3,2.7c3.9,0.3,7.2,1.9,9.6,4.9c1.2,1.5,1.8,1.5,3.2,0.4c5-3.8,10.6-5.9,17.1-5.3c4,0.3,7.4,1.9,9.9,5
	c1.1,1.3,1.8,1.3,2.6-0.1c1.4-2.4,3.4-4.3,4.4-6.9C262.1,0.7,275,0.7,288,0.7z"/>
<g>
	<path fill="#3A3A3A" stroke="#000000" stroke-miterlimit="10" d="M82.4,105.2C82.4,105.2,82.4,105.3,82.4,105.2
		c0.1-4,0.1-8.1,0.1-12.2c0,0-0.1,0.1-0.1,0.1c4,0,8,0,11.9-0.1c0,4,0,7.9-0.1,11.9c-0.1,0.2-0.2,0.3-0.3,0.4
		C90.1,105.3,86.2,105.3,82.4,105.2z"/>
	<path fill="#3A3A3A" stroke="#000000" stroke-miterlimit="10" d="M117.3,58.5c3.3-0.1,6.6-0.1,9.9-0.2c1.6-0.1,2.1,0.6,2.1,2.1
		c-0.1,3.2,0,6.4,0,9.6c0,0-0.2,0.1-0.2,0.1c-3.9,0-7.8-0.1-11.7-0.1c0,0,0.1,0.1,0.1,0.1C117.4,66.2,117.4,62.3,117.3,58.5
		L117.3,58.5z"/>
	<path fill="#3A3A3A" stroke="#000000" stroke-miterlimit="10" d="M117.5,104.9c0,0-0.1,0.2-0.1,0.2c-3.9,0-7.7,0-11.6,0l-0.1-0.2
		c0.1-4,0.1-7.9,0.2-11.9l-0.1,0.1c3.9,0,7.7,0,11.6,0c0,0,0-0.1,0-0.1C117.4,96.9,117.4,100.9,117.5,104.9z"/>
	<path fill="#3A3A3A" stroke="#000000" stroke-miterlimit="10" d="M117.5,151.7c0,0-0.1,0.2-0.1,0.2c-3.9,0.1-7.7,0.1-11.6,0.2
		c0-4.1,0-8.2,0-12.3c0,0-0.1,0.1-0.1,0.1c3.9,0,7.7,0.1,11.6,0.1c0,0,0.1,0.2,0.1,0.2C117.5,144,117.5,147.9,117.5,151.7z"/>
	<path fill="#3A3A3A" stroke="#000000" stroke-miterlimit="10" d="M128.8,81.5c0.8,3.4,0.2,6.8,0.3,10.2c0.1,1.2-0.5,1.8-1.7,1.7
		c-3.4-0.2-6.8,0.5-10.2-0.4c0,0,0,0.1,0,0.1c0-3.9,0-7.7,0-11.6l-0.1,0.1C121.2,81.5,125,81.5,128.8,81.5L128.8,81.5z"/>
	<path fill="#3A3A3A" stroke="#000000" stroke-miterlimit="10" d="M117.3,46.9c0,3.9,0,7.8,0,11.6c0,0,0.1-0.1,0.1-0.1
		c-3.9,0-7.7,0-11.6,0l0.1,0.1c0-3.9,0-7.7,0-11.6l0.1-0.2C109.7,46.6,113.6,46.3,117.3,46.9L117.3,46.9z"/>
	<path fill="#3A3A3A" stroke="#000000" stroke-miterlimit="10" d="M82.8,11.7c0,3.8,0,7.7,0,11.5c-4.1,0-8.2,0-12.3,0
		c0-3.8,0-7.7,0-11.5C74.6,11.7,78.7,11.7,82.8,11.7z"/>
	<path fill="#3A3A3A" stroke="#000000" stroke-miterlimit="10" d="M94.3,128.3c3.8,0,7.7,0.1,11.5,0.1c0,0-0.1-0.1-0.1-0.1
		c0,3.9,0,7.7,0,11.6c0,0,0.1-0.1,0.1-0.1c-3.9,0.7-7.7,0.5-11.6,0.1C93.8,136,93.8,132.1,94.3,128.3z"/>
	<path fill="#3A3A3A" stroke="#000000" stroke-miterlimit="10" d="M82.7,46.9c3.5-0.6,7-0.3,10.5-0.1c0.3,0,0.6,0.1,0.9,0.1
		c0,3.9,0.1,7.7,0.1,11.6l0.1,0c-3.9,0-7.7,0-11.6,0C82.3,54.6,82.3,50.8,82.7,46.9z"/>
	<path fill="#3A3A3A" stroke="#000000" stroke-miterlimit="10" d="M105.8,81.5c0-3.9,0-7.7,0-11.6c0,0-0.1,0-0.1,0
		c3.9,0,7.7,0,11.6,0l-0.1-0.1c0,3.9,0,7.7,0,11.6c0,0,0.1-0.1,0.1-0.1C113.5,81.5,109.6,81.5,105.8,81.5L105.8,81.5z"/>
	<path fill="#3A3A3A" stroke="#000000" stroke-miterlimit="10" d="M105.8,93c-3.9,0.7-7.7,0.5-11.6,0.1c-0.7-3.8-0.1-7.7-0.3-11.6
		c4,0,8,0,11.9,0c0,0-0.1-0.1-0.1-0.1C105.8,85.3,105.8,89.2,105.8,93L105.8,93z"/>
	<path fill="#3A3A3A" stroke="#000000" stroke-miterlimit="10" d="M94.1,46.9c-0.3,0-0.6-0.1-0.9-0.1c1.1-3.8,0.4-7.8,0.5-11.6
		c0.1-0.2,0.2-0.3,0.4-0.4c3.9,0,7.7,0,11.6,0c0,0,0.1,0.2,0.1,0.2c0,4,0.1,7.9,0.1,11.8c0,0-0.1,0.2-0.1,0.2
		C101.9,46.9,98,46.9,94.1,46.9z"/>
</g>
<g>
	<path fill="#020000" stroke="#000000" stroke-miterlimit="10" d="M0.7,0C3.8,0.7,6.9,0.3,10,0.3c1.9,0,2.4,0.6,2.5,2.5
		c0.4,9.5,0.4,9.5-9.2,9.5c-0.8,0-1.7,0-2.5,0C0.7,8.2,0.7,4.1,0.7,0z"/>
	<path fill="#020000" stroke="#000000" stroke-miterlimit="10" d="M130.3,37.4c16.5,29.7,33,59.4,49.6,89c1,1.8,1,3.1-0.2,4.8
		c-21.2,30.8-42.4,61.6-63.5,92.3c-0.5,0.8-0.9,1.7-2.1,2.1c-2.6-4.6-5.5-9.2-7.7-14c-1.6-3.6-0.4-7.8-0.6-11.7
		c0-0.7,0.5-1.1,1.2-1.1c0.7,0,1.4,0,2.2,0c9.1-0.1,9.4-0.5,8.3-9.8c-0.2-1.5-0.8-1.8-2-1.7c-2.4,0.1-4.8-0.1-7.2,0
		c-1.8,0.1-2.4-0.4-2.5-2.4c-0.3-9.2-0.4-9.3,8.8-9.3c2.4,0,3.1-0.7,2.9-3c-0.2-2.9,0-5.8,0-8.6l-0.1,0.1c1,0,1.9,0,2.9,0
		c9.7,0,9.6,0,9.2-9.6c-0.1-1.9-0.8-2.4-2.5-2.4c-3.1,0.1-6.2,0-9.3,0c0-3.8,0-7.6,0-11.4c1,0,1.9,0,2.9,0c9.1,0,9.1,0,9-9.1
		c0-2.1-0.4-3-2.7-2.9c-3.1,0.2-6.2,0.1-9.3,0.1c0-3.9,0-7.7,0-11.6c0.9,0,1.9,0.1,2.8,0.1c9.7,0,9.6,0,9.2-9.6
		c-0.1-1.9-0.8-2.4-2.5-2.4c-3.1,0.1-6.2,0-9.3,0c-0.1-4-0.1-7.9-0.2-11.9c3.4,0.9,6.8,0.2,10.2,0.4c1.2,0.1,1.8-0.5,1.7-1.7
		c-0.2-3.4,0.5-6.8-0.3-10.2c1.1,0.1,2.1,0.2,3.2,0.2c9.5,0,9.4,0,9-9.4c-0.1-2-0.8-2.4-2.5-2.3c-3.1,0.1-6.2,0-9.3,0
		c0-3.2,0-6.4,0-9.6c0-1.5-0.5-2.1-2.1-2.1c-3.3,0.1-6.6,0.1-9.9,0.2c0-3.9,0-7.8,0-11.6c0.7-0.1,1.4-0.2,2.1-0.2
		c3.1-0.2,7.3,1.3,8.9-0.7c1.6-1.9,0.5-5.9,0.6-9.1C129.5,37.5,129.9,37.4,130.3,37.4z"/>
	<path fill="#020000" stroke="#000000" stroke-miterlimit="10" d="M94.4,12.2C93.4,9,94.2,5.6,94,2.3c-0.1-1.3,0.5-2,1.9-1.9
		c3.9,0,7.9,0,11.8,0c0.9,0,1.5,0.4,2,1.2c6.4,11.1,12.8,22.3,19.2,33.4c0.1,0.2,0.1,0.5,0.1,0.7c-3.9-0.1-7.8-0.3-11.6-0.4
		c0-3.1,0-6.2,0.1-9.2c0.1-2-0.6-2.4-2.4-2.3c-3.1,0.1-6.2,0-9.2,0c0-3.1-0.1-6.2,0.1-9.2c0.1-1.8-0.4-2.6-2.3-2.4
		C100.5,12.3,97.4,12.2,94.4,12.2L94.4,12.2z"/>
	<path fill="#020000" stroke="#000000" stroke-miterlimit="10" d="M36,12.2c-3.2,0-6.4-0.1-9.7,0.1c-2.1,0.1-2.5-0.7-2.6-2.7
		c-0.2-10-0.2-10.1,9.9-9.4c1.7,0.1,2.3,0.6,2.3,2.3C35.9,5.8,36,9,36,12.2C36,12.3,36,12.2,36,12.2z"/>
	<path fill="#020000" stroke="#000000" stroke-miterlimit="10" d="M70.5,12.3c0-3.2,0.2-6.5,0.1-9.7c0-1.8,0.6-2.2,2.3-2.3
		c9.8-0.6,9.8-0.7,9.8,9.1c0,1,0.1,1.9,0.1,2.9l0,0C78.7,12.3,74.6,12.3,70.5,12.3C70.5,12.3,70.5,12.3,70.5,12.3z"/>
	<path fill="#020000" stroke="#000000" stroke-miterlimit="10" d="M82.7,36.1c-2.9-0.6-5.9-0.3-8.9-0.3c-2.4,0.1-3.4-0.5-3.3-3.1
		c0.2-3,0-5.9-0.1-8.9c0,0,0,0,0,0c4.1,0,8.2,0,12.3,0c0,0,0,0,0,0c-0.4,4-0.4,8,0,12l0.1,0.2L82.7,36.1z"/>
	<path fill="#020000" stroke="#000000" stroke-miterlimit="10" d="M105.9,152.6c-3.9,0-7.8,0-11.7-0.1c-0.3,0-0.5-0.1-0.8-0.1
		c1.4-2.6,0.4-5.4,0.7-8.1c0.1-1.3,0.2-2.6,0.3-3.9c0,0,0-0.1,0-0.1c3.9,0.4,7.7,0.7,11.6-0.1C105.9,144.5,105.8,148.6,105.9,152.6
		L105.9,152.6z"/>
	<path fill="#020000" stroke="#000000" stroke-miterlimit="10" d="M47.6,12.3c-0.1-3.3-0.1-6.6-0.2-10c0-1.3,0.3-2.1,1.8-2
		c0.2,0,0.5,0,0.7,0C59.8-0.1,60,0.1,59,12.3c0,0,0.1-0.1,0.1-0.1C55.2,12.2,51.4,12.2,47.6,12.3L47.6,12.3z"/>
	<path fill="#020000" stroke="#000000" stroke-miterlimit="10" d="M117.4,35.3c3.9,0.1,7.8,0.3,11.6,0.4c0,0-0.1-0.1-0.1-0.1
		c0,0.6,0.1,1.2,0.1,1.9c-0.1,3.1,1,7.1-0.6,9.1c-1.7,2-5.9,0.5-8.9,0.7c-0.7,0.1-1.4,0.2-2.1,0.2c0,0,0,0.1,0,0.1
		C117.4,43.4,117.4,39.3,117.4,35.3L117.4,35.3z"/>
	<path fill="#020000" stroke="#000000" stroke-miterlimit="10" d="M59.1,59c-3.2,0-6.4,0-9.7,0.1c-1.6,0.1-2.2-0.5-2-2.1
		c0-0.4,0-0.7,0-1.1c-0.1-9.6-0.1-9.5,9.6-8.9c1.8,0.1,2.3,0.7,2.2,2.4C59.1,52.6,59,55.9,59.1,59C59,59.1,59.1,59,59.1,59z"/>
	<path fill="#020000" stroke="#000000" stroke-miterlimit="10" d="M82.7,59.1c-4.1,0-8.1-0.1-12.2-0.1l0.1,0.1c0-3.1,0.2-6.2,0-9.2
		c-0.1-1.9,0.4-2.8,2.6-2.7c3.2,0.2,6.4,0.2,9.5,0.3c0,0,0.1,0.1,0.1,0.1C82.3,51.4,82.3,55.2,82.7,59.1L82.7,59.1z"/>
	<path fill="#020000" stroke="#000000" stroke-miterlimit="10" d="M93.9,82.1c-0.2-3.8,0.4-7.7-0.4-11.5c0.2,0,0.4,0,0.6,0
		c3.9,0,7.8,0,11.7-0.1c0,3.9,0,7.7,0,11.6C101.9,82.1,97.9,82.1,93.9,82.1L93.9,82.1z"/>
	<path fill="#020000" stroke="#000000" stroke-miterlimit="10" d="M82.5,93.6c0,4.1,0,8.2,0,12.3c-3.1,0-6.2-0.2-9.3-0.1
		c-2.1,0.1-2.5-0.7-2.6-2.7c-0.2-9.4-0.3-9.4,9-9.4C80.6,93.7,81.5,93.6,82.5,93.6z"/>
	<path fill="#020000" stroke="#000000" stroke-miterlimit="10" d="M94.3,140.5c-0.9,0.1-1.9,0.2-2.8,0.2c-9.7,0.1-9.7,0.1-9.1-9.7
		c0.1-1.7,0.6-2.2,2.3-2.2c3.2,0.1,6.4,0,9.6,0l0,0C93.8,132.7,93.8,136.6,94.3,140.5L94.3,140.5z"/>
	<path fill="#020000" stroke="#000000" stroke-miterlimit="10" d="M93.3,152.5c0.3,0,0.5,0.1,0.8,0.1c0,3.1,0,6.2,0.1,9.3
		c0.1,2-0.7,2.5-2.5,2.3c-0.1,0-0.2,0-0.4,0c-9.8,0.2-9.8,0.1-9-9.7c0.1-1.7,0.8-2.3,2.4-2.2C87.6,152.4,90.5,152.4,93.3,152.5z"/>
	<path fill="#020000" stroke="#000000" stroke-miterlimit="10" d="M47.5,12.2c0,3.2-0.1,6.4,0,9.7c0,1.5-0.4,2.2-2,2
		c-0.1,0-0.2,0-0.4,0c-10.1,0.4-11-0.7-9.2-11.6c0,0,0,0,0,0C39.9,12.3,43.7,12.3,47.5,12.2C47.6,12.3,47.5,12.2,47.5,12.2z"/>
	<path fill="#020000" stroke="#000000" stroke-miterlimit="10" d="M93.9,82.1C93.9,82.1,93.9,82.1,93.9,82.1
		c0.2,3.8-0.3,7.7,0.3,11.5l0.1,0c-4,0-8,0-11.9,0.1c0-0.1,0-0.2,0-0.4c0.3-3.6-1.6-8.7,0.8-10.6C85.5,80.9,90.3,82.2,93.9,82.1z"/>
	<path fill="#020000" stroke="#000000" stroke-miterlimit="10" d="M70.5,23.8c-3.7,0-8.6,1.6-10.9-0.6c-1.8-1.8-0.5-6.7-0.6-10.2
		c0-0.2,0-0.5,0-0.7c0,0-0.1,0.1-0.1,0.1c3.9,0,7.7,0,11.6,0c0,0,0,0,0,0C70.5,16.1,70.5,19.9,70.5,23.8L70.5,23.8z"/>
	<path fill="#020000" stroke="#000000" stroke-miterlimit="10" d="M82.8,12.3c3.9,0,7.7,0,11.6,0c0,0-0.1,0-0.1,0
		c-0.5,3.9-0.6,7.7,0.1,11.6c-3.8,0-7.7-0.1-11.5-0.1c0,0,0,0,0,0C82.8,19.9,82.8,16.1,82.8,12.3L82.8,12.3z"/>
	<path fill="#020000" stroke="#000000" stroke-miterlimit="10" d="M82.4,105.8c3.8,0,7.7,0,11.5,0c0.2,3.8-0.4,7.7,0.3,11.6
		c0,0,0.1-0.1,0.1-0.1c-3.8-0.1-8.8,1.3-11.1-0.6C80.8,114.8,82.8,109.6,82.4,105.8z"/>
	<path fill="#020000" stroke="#000000" stroke-miterlimit="10" d="M94.3,128.9c-0.4-3.8-0.7-7.7,0.1-11.5c0,0-0.1,0.1-0.1,0.1
		c3.9,0,7.7-0.1,11.6-0.1c0,3.9,0,7.7,0,11.6C102,128.9,98.1,128.9,94.3,128.9L94.3,128.9z"/>
	<path fill="#020000" stroke="#000000" stroke-miterlimit="10" d="M70.5,59c0.8,3.3,0.2,6.6,0.4,9.9c0.1,1.2-0.4,1.8-1.6,1.7
		c-0.1,0-0.2,0-0.4,0C59,71.6,59,71.6,59,61.9c0-1,0-1.9,0-2.9c0,0-0.1,0.1-0.1,0.1C62.8,59.1,66.7,59.1,70.5,59
		C70.6,59.1,70.5,59,70.5,59z"/>
	<path fill="#020000" stroke="#000000" stroke-miterlimit="10" d="M94.2,70.6c-0.2,0-0.4,0-0.6,0c-0.2,0-0.5,0.1-0.7,0.1
		C81.5,71,81.3,70.8,82.7,59.1c0,0,0.1,0,0.1,0c3.9,0,7.7,0,11.6,0C94.3,62.9,94.2,66.8,94.2,70.6z"/>
	<path fill="#020000" stroke="#000000" stroke-miterlimit="10" d="M117.4,164.1c-3.1,0-6.2-0.1-9.3,0.1c-1.8,0.1-2.6-0.3-2.5-2.3
		c0.2-3.1,0.1-6.2,0.2-9.2c0,0,0,0,0,0c3.9-0.1,7.7-0.1,11.6-0.2C117.4,156.4,117.3,160.3,117.4,164.1L117.4,164.1z"/>
	<path fill="#020000" stroke="#000000" stroke-miterlimit="10" d="M82.7,36.1l0.2-0.2c0,0-0.1-0.2-0.1-0.2c3.7,0,7.3,0,11,0
		c-0.1,3.9,0.7,7.8-0.5,11.6c-3.5-0.2-7-0.4-10.5,0.1c0,0-0.1-0.1-0.1-0.1C82.3,43.7,82.3,39.9,82.7,36.1z"/>
	<path fill="#020000" stroke="#000000" stroke-miterlimit="10" d="M129,37.5c0-0.6-0.1-1.2-0.1-1.9c1,0.2,1.3,0.9,1.4,1.8
		C129.9,37.4,129.5,37.5,129,37.5z"/>
	<path fill="#020000" stroke="#000000" stroke-miterlimit="10" d="M117.5,105.4c3.1,0,6.2,0.1,9.3,0c1.8-0.1,2.5,0.4,2.5,2.4
		c0.5,9.6,0.5,9.6-9.2,9.6c-0.9,0-1.9,0-2.8-0.1c0,0,0,0.1,0,0.1c0-3.9,0-7.8,0-11.7L117.5,105.4z"/>
	<path fill="#020000" stroke="#000000" stroke-miterlimit="10" d="M117.3,128.9c3.1,0,6.2,0.1,9.3-0.1c2.3-0.2,2.7,0.8,2.7,2.9
		c0.1,9.1,0.2,9.1-9,9.1c-1,0-1.9,0-2.9,0c0,0-0.1-0.2-0.1-0.2C117.4,136.7,117.4,132.8,117.3,128.9L117.3,128.9z"/>
	<path fill="#020000" stroke="#000000" stroke-miterlimit="10" d="M117.3,164.2c0-3.9,0-7.8,0.1-11.7c0,0,0.1-0.2,0.1-0.2
		c3.1,0,6.2,0.1,9.3,0c1.8-0.1,2.5,0.5,2.5,2.4c0.5,9.6,0.5,9.6-9.2,9.6C119.2,164.2,118.3,164.2,117.3,164.2z"/>
	<path fill="#020000" stroke="#000000" stroke-miterlimit="10" d="M129.1,70.7c0,0,0.2-0.1,0.2-0.1c3.1,0,6.2,0.1,9.3,0
		c1.7-0.1,2.5,0.3,2.5,2.3c0.4,9.4,0.5,9.4-9,9.4c-1.1,0-2.1-0.1-3.2-0.2c0,0,0.1,0,0.1,0C129,78.3,129,74.5,129.1,70.7z"/>
	<path fill="#020000" stroke="#000000" stroke-miterlimit="10" d="M105.8,128.9c0-3.9,0-7.7,0-11.6c0,0,0,0.1,0,0.1
		c3.9,0,7.7,0,11.6,0c0,0,0-0.1,0-0.1c0,3.9,0,7.7,0,11.6c0,0,0-0.1,0-0.1C113.5,128.9,109.7,128.9,105.8,128.9L105.8,128.9z"/>
	<path fill="#020000" stroke="#000000" stroke-miterlimit="10" d="M94.3,23.8c-0.6-3.9-0.5-7.7-0.1-11.6c3.1,0,6.2,0.1,9.2-0.1
		c2-0.1,2.4,0.6,2.3,2.4c-0.1,3.1,0,6.2-0.1,9.2l0.1-0.1C102,23.7,98.2,23.7,94.3,23.8L94.3,23.8z"/>
	<path fill="#020000" stroke="#000000" stroke-miterlimit="10" d="M105.8,23.8c3.1,0,6.2,0.1,9.2,0c1.8-0.1,2.6,0.4,2.4,2.3
		c-0.2,3.1-0.1,6.2-0.1,9.2c0,0,0-0.1,0-0.1c-3.8,0.8-7.7,0.3-11.6,0.3c0,0-0.1-0.2-0.1-0.2C105.8,31.5,105.8,27.6,105.8,23.8
		L105.8,23.8z"/>
	<path fill="#020000" stroke="#000000" stroke-miterlimit="10" d="M93.8,35.7c-3.7,0-7.3,0-11,0c-0.3-4-0.4-8,0-12
		c3.8,0,7.7,0.1,11.5,0.1c0,0,0-0.1,0-0.1c0,3.9-0.1,7.7-0.1,11.6C94,35.4,93.9,35.5,93.8,35.7z"/>
	<path fill="#020000" stroke="#000000" stroke-miterlimit="10" d="M105.7,105.5c0,0,0.1,0.2,0.1,0.2c0,3.9,0,7.8,0,11.8
		c0,0,0-0.1,0-0.1c-3.9,0-7.7,0.1-11.6,0.1c-0.8-3.8-0.1-7.7-0.3-11.6c0.2-0.1,0.3-0.2,0.3-0.4C98.1,105.5,101.9,105.5,105.7,105.5z
		"/>
	<path fill="#020000" stroke="#000000" stroke-miterlimit="10" d="M105.7,105.5c-3.8,0-7.6,0-11.4,0c0-4,0-7.9,0.1-11.9
		c0,0-0.1,0-0.1,0c3.9,0.4,7.7,0.6,11.6-0.1C105.8,97.5,105.7,101.5,105.7,105.5z"/>
	<path fill="#020000" stroke="#000000" stroke-miterlimit="10" d="M105.8,35.5c3.9,0,7.7,0.5,11.6-0.3c0,4.1,0,8.2,0,12.3
		c-3.8-0.6-7.7-0.4-11.5-0.2C105.9,43.4,105.9,39.5,105.8,35.5z"/>
	<path fill="#020000" stroke="#000000" stroke-miterlimit="10" d="M94.2,70.6c0.1-3.9,0.1-7.7,0.2-11.6c0,0-0.1,0-0.1,0
		c3.9,0,7.7,0,11.6,0l-0.1-0.1c0,3.9,0,7.7,0,11.6c0,0,0.1,0,0.1,0C102,70.6,98.1,70.6,94.2,70.6z"/>
	<path fill="#020000" stroke="#000000" stroke-miterlimit="10" d="M105.8,117.4c0-3.9,0-7.8,0-11.8c3.9,0,7.7,0,11.6,0
		c0,3.9,0,7.8,0,11.7C113.5,117.4,109.7,117.4,105.8,117.4z"/>
	<path fill="#020000" stroke="#000000" stroke-miterlimit="10" d="M105.8,140.4c0-3.9,0-7.7,0-11.6c3.9,0,7.7,0,11.6,0
		c0,3.9,0,7.8,0,11.7C113.5,140.5,109.7,140.5,105.8,140.4z"/>
	<path fill="#020000" stroke="#000000" stroke-miterlimit="10" d="M105.8,70.6c0-3.9,0-7.7,0-11.6c3.9,0,7.7,0,11.6,0
		c0,3.9,0,7.7,0,11.6C113.5,70.6,109.7,70.6,105.8,70.6z"/>
	<path fill="#020000" stroke="#000000" stroke-miterlimit="10" d="M117.3,82.1c0-3.9,0-7.7,0-11.6c3.9,0,7.8,0.1,11.7,0.1
		c0,3.8-0.1,7.6-0.1,11.4C125.1,82.1,121.2,82.1,117.3,82.1z"/>
	<path fill="#020000" stroke="#000000" stroke-miterlimit="10" d="M105.8,93.6c0-3.9,0-7.7,0-11.6c3.9,0,7.7,0,11.6,0
		c0,3.9,0,7.7,0,11.6C113.5,93.6,109.7,93.6,105.8,93.6z"/>
	<path fill="#020000" stroke="#000000" stroke-miterlimit="10" d="M94.2,47.5c2.4,0,6.7,0,11.7,0c0,3.9,0,7.7,0,11.6
		c-3.9,0-7.7,0-11.6,0C94.2,55.2,94.2,51.4,94.2,47.5z"/>
	<path fill="#020000" stroke="#000000" stroke-miterlimit="10" d="M105.8,35.4c-3.9,0-7.7,0-11.6,0c0-3.9,0.1-7.7,0.1-11.6
		c3.9,0,7.7,0,11.6,0C105.8,27.6,105.8,31.5,105.8,35.4z"/>
</g>
</svg>
