
<svg version="1.1" id="_nh_logo" xmlns="http://www.w3.org/2000/svg" xmlns:xlink="http://www.w3.org/1999/xlink" x="0px" y="0px" width="100%" height="100%"
	 viewBox="0 0 293.2 294.2" enable-background="new 0 0 293.2 294.2" xml:space="preserve">
<g>
	<path d="M220.5,0c12,23.7,24.1,47.4,36.1,71.2c11.6,23.1,22.9,46.4,34.7,69.4c2.2,4.3,2.6,7.6,0.3,12.2
		c-22.4,44.5-44.6,89-66.7,133.6c-2.7,5.4-5.6,7.9-12.1,7.8c-44.1-0.3-88.2-0.3-132.2,0c-6.5,0.1-9.2-2.4-11.9-7.8
		C47,242.5,25,198.7,3,154.9c-0.9-1.7-2-3.3-3-4.9c0-2,0-3.9,0-5.9c1.1-1.9,2.4-3.7,3.4-5.6c12.9-25.6,25.7-51.2,38.5-76.9
		C52,41,62,20.5,72,0C121.5,0,171,0,220.5,0z M147.1,284.2c19.6,0,39.2-0.5,58.8,0.2c8.1,0.3,11.5-3.1,14.7-9.6
		c20.1-40.9,40.7-81.6,60.8-122.5c1.4-2.9,1.4-7.7,0-10.6c-9.7-20.2-19.9-40.2-29.9-60.2c-11-22-21.9-44-32.9-66
		c-1.7-3.4-3.2-6.5-8.5-6.5C167.8,9.3,125.4,9.1,83,9.4c-2.3,0-5.5,2-6.7,4c-4.7,8.2-8.9,16.8-13.1,25.3
		c-17,34-33.8,68.1-50.9,102.1c-2.3,4.5-2.4,7.9-0.1,12.3c6.6,12.5,12.8,25.2,19.1,37.9c14.5,29,29,58,43.3,87.1
		c2.4,4.8,5.4,6.5,10.8,6.4C105.9,284,126.5,284.2,147.1,284.2z"/>
	<path d="M146.6,280.7c-20.3,0-40.6,0.1-61-0.2c-2.5,0-6.3-1.8-7.4-3.9c-21.1-41.7-42-83.6-62.7-125.5c-1.2-2.3-1.2-6.2-0.1-8.5
		C36.1,100.9,57,59.3,78.1,17.8c1.1-2.2,4.6-4.4,7-4.4c41.1-0.3,82.3-0.3,123.4,0c2.4,0,6,2.2,7.1,4.3
		c20.6,40.6,40.9,81.5,61.5,122.2c2.4,4.8,2.6,8.9,0.1,13.7c-20.4,40.4-40.8,80.9-60.8,121.5c-2.3,4.6-4.8,5.7-9.5,5.7
		C186.7,280.6,166.7,280.7,146.6,280.7z M116.2,106.3c-9.1-0.6-9.1-0.6-11.5,6.3c-3.2,9.3-6.4,18.6-9.6,27.9
		c-0.4-0.1-0.8-0.2-1.2-0.3c0.7-11.3,1.4-22.6,2.1-33.8c-12.2-1.1-12.4-1.1-16,9.2c-4,11.2-7.6,22.6-11.4,33.9
		c-2.5,7.3-4.9,14.5-7.6,22.3c3.7,0,6.3,0,9.1,0c5-14.5,10-28.9,15-43.3c0.4,0.1,0.7,0.2,1.1,0.3c-1,14.2-2,28.4-3.1,42.9
		c4.1,0,7.2,0,10.6,0C101.3,150,108.7,128.3,116.2,106.3z M209.3,107c-0.5-0.7-1-1.5-1.5-2.2c-3.1,1.4-8.3,2-9.1,4.2
		c-7.6,20.5-14.4,41.4-21.5,62.1c7.6,2.7,11.5,0.4,12.8-7.1c0.7-3.8,3.1-7.3,3.7-11.1c1.3-8.8,6.3-10.5,14.4-8.2
		c-2.9,8.8-5.8,17.6-8.7,26.4c7.8,2.3,10.9-0.1,12.9-7c4.9-16.5,11-32.8,16.6-49.1c1-2.8,1.7-5.8,2.5-8.6c-7.5-2.2-11.3,0-12.6,7.1
		c-0.9,4.5-2.9,8.8-4.4,13.2c-3,9-4.2,9.6-13.9,6.3C203.4,124.4,206.3,115.7,209.3,107z M118.6,173.5c6.3-0.3,13.2-4.3,16.4-12.4
		c5.5-14,10.4-28.3,14.7-42.8c2.7-9.1-1.7-14-11.3-13.9c-9.3,0.1-16,4.9-19.3,13.1c-5.4,13.8-10.2,27.8-14.5,42
		C102,168.5,106.6,173.5,118.6,173.5z M183.7,106.4c-14.7-1.5-14.7-1.5-20.6,10.3c-3.5,7-7,14-10.5,20.9
		c-5.5,11.1-10.9,22.2-16.4,33.3c0.5,0.7,1,1.5,1.6,2.2c3.1-1.6,8-2.6,8.8-5.1c3-8.8,9-8.7,16.4-7.3c-0.5,3.7-0.9,7.1-1.4,10.8
		c3.7,0,6.7,0,10.1,0C175.8,149.9,179.7,128.4,183.7,106.4z"/>
	<path d="M140,116.9c-1.2,3.6-1.9,6-2.7,8.3c-3.6,10.6-7.1,21.2-11.1,31.7c-0.9,2.5-3,5.2-5.3,6.3c-4.1,1.9-7.1,0.2-5.5-4.7
		c4.2-13,8.6-26,13.4-38.8c0.9-2.3,3.8-4.3,6.2-5.4C136.1,113.8,138.4,115.9,140,116.9z"/>
	<path d="M170.6,122.9c-1.8,9.2-3.6,18.4-5.5,28.1c-3,0-5.8,0-9.6,0c4.6-9.7,9.1-19.2,13.6-28.6
		C169.7,122.5,170.2,122.7,170.6,122.9z"/>
</g>
</svg>
