
<svg version="1.1" id="_xx_logo" xmlns="http://www.w3.org/2000/svg" xmlns:xlink="http://www.w3.org/1999/xlink" x="0px" y="0px" width="100%" height="100%"
	 viewBox="-450.5 -171.5 297.6 297.6" enable-background="new -450.5 -171.5 297.6 297.6" xml:space="preserve">
<g>
	<path fill="#FFFFFF" d="M-278.1-25.5c9.5,11.9,19.2,23.8,29.1,35.7c9.9,12,19.7,24.1,29.4,36.3c2.2,2.5,4.1,4.8,5.9,7
		c1.8,2.2,2.8,5.2,3,9c0.2,3.8-0.6,7.4-2.4,10.6c-1.8,3.3-4.2,5.8-7.2,7.8c-3.1,1.9-6.6,2.9-10.5,3c-3.9,0.1-7.8-1-11.5-3.3
		c-1.8-1-3.2-2.2-4.3-3.7c-1.1-1.5-2.4-3.3-4-5.2c-3.5-4.6-7.3-9.3-11.4-14.1c-4-4.8-7.9-9.4-11.7-13.8
		c-5.3-6.3-10.4-12.6-15.4-18.9c-4.9-6.3-9.9-12.5-15.1-18.7c-2.8,2.7-5.3,5.6-7.5,8.6c-2.3,3.1-4.6,6.1-6.9,9.2
		c-6.1,7.3-12.2,14.5-18.2,21.7c-6,7.2-12.1,14.7-18.2,22.5c-1.4,1.7-2.9,3.5-4.4,5.3c-1.6,1.8-3.4,3.4-5.5,4.9
		c-2.1,1.4-4.4,2.6-7.1,3.4c-2.7,0.9-5.7,1.1-9,0.7c-4.1-0.6-7.8-2.7-10.9-6.3c-3.2-3.6-4.9-7.5-5.3-11.5
		c-0.6-4.8,0.1-8.6,2.1-11.5c2-2.9,4.1-5.7,6.5-8.6c9.8-11.7,19.6-23.3,29.4-35c9.8-11.7,19.4-23.4,28.8-35.3
		c-8.3-10.3-16.1-20-23.5-29.1c-7.4-9.1-15.2-18.7-23.5-28.9c-1.2-1.5-2.5-3.2-3.8-4.9c-1.4-1.7-2.8-3.3-4.1-4.9
		c-1.4-1.5-2.9-3.2-4.4-5c-1.6-1.8-3-3.9-4.1-6.2c-1.2-2.3-2-4.7-2.4-7.3c-0.4-2.6,0-5.5,1.2-8.8c1.2-3.3,3.1-5.9,5.6-8
		c2.6-2.1,5.5-3.5,8.7-4.2c3.3-0.7,6.5-0.7,9.9-0.1c3.3,0.6,6.4,2,9.2,4.3c1.4,1.1,2.6,2.6,3.5,4.3c1,1.7,2.2,3.4,3.5,4.9
		c7.5,8.8,14.7,17.5,21.6,26.1c6.9,8.6,14.1,17.5,21.6,26.7c0.8,0.8,1.6,1.8,2.5,3.2c0.9,1.3,1.8,2.6,2.8,3.7
		c0,0.2,0.3,0.6,0.9,1.1c0.2,0.4,0.5,0.7,0.9,0.9c0.4,0,1-0.6,1.8-1.7c0.8-1.1,1.6-2.1,2.4-2.9c8.9-10.7,17.3-21,25.4-30.9
		c8.1-9.9,16.5-20.1,25.4-30.9c2.2-2.7,4.2-5.1,6.2-7.3c2-2.2,5.2-3.5,9.8-3.9c2,0,4,0.2,6.2,0.7c2.2,0.5,4,1.1,5.6,1.9
		c1.6,0.8,3.2,1.9,4.9,3.4c1.7,1.5,3,3.1,4,4.6c1.2,2.1,1.8,4.9,1.8,8.5c0,3.5-0.5,6.6-1.5,9c-0.8,1.7-1.9,3.5-3.4,5.3
		c-1.5,1.8-3,3.6-4.6,5.3C-230-85-239.6-73.1-249.3-61C-259.1-48.8-268.7-37-278.1-25.5z"/>
	<circle fill="none" stroke="#FFFFFF" stroke-width="15" stroke-miterlimit="10" cx="-301.7" cy="-22.7" r="141.3"/>
</g>
</svg>
